<svg width="380" height="380" viewBox="0 0 380 380" fill="none" xmlns="http://www.w3.org/2000/svg">
<g clip-path="url(#clip0_1624_9)">
<g filter="url(#filter0_d_1624_9)">
<path d="M380 190.009C380 225.304 370.372 258.344 353.602 286.668C343.072 304.463 329.709 320.393 314.138 333.833C287.601 356.761 254.639 372.471 218.334 377.901C209.095 379.285 199.622 380 189.991 380C172.57 380 155.693 377.652 139.653 373.264C59.1583 351.191 0 277.507 0 190.009C0 173.877 2.00687 158.214 5.80391 143.266C11.403 121.116 20.8911 100.504 33.5083 82.2284C67.7736 32.5583 125.097 0 189.991 0C242.179 0 289.468 21.0455 323.799 55.1267C343.508 74.6641 358.955 98.4942 368.63 125.109C375.986 145.365 380 167.221 380 190.009Z" fill="url(#paint0_radial_1624_9)"/>
<path d="M300.31 272.543C319.396 279.264 337.345 284.023 353.602 286.668C343.072 304.463 329.709 320.393 314.138 333.833C299.562 331.407 283.649 327.284 266.772 321.608C250.812 342.84 234.463 361.772 218.334 377.901C209.095 379.285 199.622 380 189.991 380C172.57 380 155.693 377.652 139.653 373.264C162.503 354.053 186.443 328.433 209.635 297.962C182.617 284.863 154.443 268.624 126.368 249.538C119.742 245.026 113.255 240.469 106.923 235.835C89.2673 222.971 72.8116 209.701 57.7838 196.338C37.7803 178.573 20.2795 160.654 5.79797 143.263C11.397 121.113 20.8852 100.501 33.5023 82.2255C47.7048 101.077 65.7489 120.801 86.9517 140.481C101.371 153.858 117.269 167.221 134.425 180.271C144.21 187.708 154.414 195.05 164.976 202.234C191.529 220.278 218.144 235.772 243.794 248.481C247.059 243.286 250.28 238.014 253.454 232.646C271.638 201.925 286.68 171.312 298.3 142.254C307.102 120.291 313.948 99.2275 318.74 79.6605C320.824 71.1817 322.519 62.985 323.796 55.1297C343.505 74.667 358.952 98.4972 368.627 125.112C362.668 145.115 354.798 166.366 345.09 188.299C334.872 211.351 322.644 235.167 308.521 259.029C305.817 263.601 303.08 268.096 300.31 272.543Z" fill="white"/>
</g>
</g>
<defs>
<filter id="filter0_d_1624_9" x="0" y="0" width="384" height="384" filterUnits="userSpaceOnUse" color-interpolation-filters="sRGB">
<feFlood flood-opacity="0" result="BackgroundImageFix"/>
<feColorMatrix in="SourceAlpha" type="matrix" values="0 0 0 0 0 0 0 0 0 0 0 0 0 0 0 0 0 0 127 0" result="hardAlpha"/>
<feOffset dx="2" dy="2"/>
<feGaussianBlur stdDeviation="1"/>
<feComposite in2="hardAlpha" operator="out"/>
<feColorMatrix type="matrix" values="0 0 0 0 0.607843 0 0 0 0 0 0 0 0 0 0.576471 0 0 0 0.26 0"/>
<feBlend mode="normal" in2="BackgroundImageFix" result="effect1_dropShadow_1624_9"/>
<feBlend mode="normal" in="SourceGraphic" in2="effect1_dropShadow_1624_9" result="shape"/>
</filter>
<radialGradient id="paint0_radial_1624_9" cx="0" cy="0" r="1" gradientUnits="userSpaceOnUse" gradientTransform="translate(186.535 35.9689) scale(137.478 204.325)">
<stop stop-color="#9B0093"/>
<stop offset="1" stop-color="#242560"/>
</radialGradient>
<clipPath id="clip0_1624_9">
<rect width="380" height="380" fill="white"/>
</clipPath>
</defs>
</svg>
